<?xml version="1.0" encoding="UTF-8"?>
<svg viewBox="0 0 380 200" xmlns="http://www.w3.org/2000/svg">
 <path d="m0 1h379v199h-379z" fill="none" stroke="#000"/>
 <path d="m0 184h379v16h-379z" fill="#bf0a30" fill-rule="evenodd"/>
 <path d="m0 168h379v16h-379z" fill="#fff" fill-rule="evenodd"/>
 <path d="m0 152h379v16h-379z" fill="#bf0a30" fill-rule="evenodd"/>
 <path d="m0 136h379v16h-379z" fill="#fff" fill-rule="evenodd"/>
 <path d="m0 121h379v15h-379z" fill="#bf0a30" fill-rule="evenodd"/>
 <path d="m0 106h379v15h-379z" fill="#fff" fill-rule="evenodd"/>
 <path d="m0 91h379v15h-379z" fill="#bf0a30" fill-rule="evenodd"/>
 <path d="m0 76h379v15h-379z" fill="#fff" fill-rule="evenodd"/>
 <path d="m0 61h379v15h-379z" fill="#bf0a30" fill-rule="evenodd"/>
 <path d="m0 46h379v15h-379z" fill="#fff" fill-rule="evenodd"/>
 <path d="m0 31h379v15h-379z" fill="#bf0a30" fill-rule="evenodd"/>
 <path d="m0 16h379v15h-379z" fill="#fff" fill-rule="evenodd"/>
 <path d="m0 1h379v15h-379z" fill="#bf0a30" fill-rule="evenodd"/>
 <path d="m0 1h152v105h-152z" fill="#002868" fill-rule="evenodd"/>
 <path transform="matrix(1.0487 .089951 -.08593 1.0977 -86.263 -76.411)" d="m100.33 146.67 4.1389-0.77244 1.2751-4.0126 2.0136 3.6976 4.2102-0.02725-2.8944 3.0577 1.327 3.9958-3.8024-1.8078-3.3901 2.4968 0.54435-4.175-3.4222-2.4527z" fill="#fff" fill-rule="evenodd"/>
 <path transform="matrix(1.0487 .089951 -.08593 1.0977 -61.263 -76.411)" d="m100.33 146.67 4.1389-0.77244 1.2751-4.0126 2.0136 3.6976 4.2102-0.02725-2.8944 3.0577 1.327 3.9958-3.8024-1.8078-3.3901 2.4968 0.54435-4.175-3.4222-2.4527z" fill="#fff" fill-rule="evenodd"/>
 <path transform="matrix(1.0487 .089951 -.08593 1.0977 -35.263 -76.411)" d="m100.33 146.67 4.1389-0.77244 1.2751-4.0126 2.0136 3.6976 4.2102-0.02725-2.8944 3.0577 1.327 3.9958-3.8024-1.8078-3.3901 2.4968 0.54435-4.175-3.4222-2.4527z" fill="#fff" fill-rule="evenodd"/>
 <path transform="matrix(1.0487 .089951 -.08593 1.0977 -10.263 -76.411)" d="m100.33 146.67 4.1389-0.77244 1.2751-4.0126 2.0136 3.6976 4.2102-0.02725-2.8944 3.0577 1.327 3.9958-3.8024-1.8078-3.3901 2.4968 0.54435-4.175-3.4222-2.4527z" fill="#fff" fill-rule="evenodd"/>
 <path transform="matrix(1.0487 .089951 -.08593 1.0977 14.737 -76.411)" d="m100.33 146.67 4.1389-0.77244 1.2751-4.0126 2.0136 3.6976 4.2102-0.02725-2.8944 3.0577 1.327 3.9958-3.8024-1.8078-3.3901 2.4968 0.54435-4.175-3.4222-2.4527z" fill="#fff" fill-rule="evenodd"/>
 <path transform="matrix(1.0487 .089951 -.08593 1.0977 40.737 -76.411)" d="m100.33 146.67 4.1389-0.77244 1.2751-4.0126 2.0136 3.6976 4.2102-0.02725-2.8944 3.0577 1.327 3.9958-3.8024-1.8078-3.3901 2.4968 0.54435-4.175-3.4222-2.4527z" fill="#fff" fill-rule="evenodd"/>
 <path transform="matrix(1.0487 .089951 -.08593 1.0977 -73.263 -86.411)" d="m100.33 146.67 4.1389-0.77244 1.2751-4.0126 2.0136 3.6976 4.2102-0.02725-2.8944 3.0577 1.327 3.9958-3.8024-1.8078-3.3901 2.4968 0.54435-4.175-3.4222-2.4527z" fill="#fff" fill-rule="evenodd"/>
 <path transform="matrix(1.0487 .089951 -.08593 1.0977 -86.263 -97.411)" d="m100.33 146.67 4.1389-0.77244 1.2751-4.0126 2.0136 3.6976 4.2102-0.02725-2.8944 3.0577 1.327 3.9958-3.8024-1.8078-3.3901 2.4968 0.54435-4.175-3.4222-2.4527z" fill="#fff" fill-rule="evenodd"/>
 <path transform="matrix(1.0487 .089951 -.08593 1.0977 -73.263 -107.41)" d="m100.33 146.67 4.1389-0.77244 1.2751-4.0126 2.0136 3.6976 4.2102-0.02725-2.8944 3.0577 1.327 3.9958-3.8024-1.8078-3.3901 2.4968 0.54435-4.175-3.4222-2.4527z" fill="#fff" fill-rule="evenodd"/>
 <path transform="matrix(1.0487 .089951 -.08593 1.0977 -86.263 -118.41)" d="m100.33 146.67 4.1389-0.77244 1.2751-4.0126 2.0136 3.6976 4.2102-0.02725-2.8944 3.0577 1.327 3.9958-3.8024-1.8078-3.3901 2.4968 0.54435-4.175-3.4222-2.4527z" fill="#fff" fill-rule="evenodd"/>
 <path transform="matrix(1.0487 .089951 -.08593 1.0977 -73.263 -128.41)" d="m100.33 146.67 4.1389-0.77244 1.2751-4.0126 2.0136 3.6976 4.2102-0.02725-2.8944 3.0577 1.327 3.9958-3.8024-1.8078-3.3901 2.4968 0.54435-4.175-3.4222-2.4527z" fill="#fff" fill-rule="evenodd"/>
 <path transform="matrix(1.0487 .089951 -.08593 1.0977 -86.263 -139.41)" d="m100.33 146.67 4.1389-0.77244 1.2751-4.0126 2.0136 3.6976 4.2102-0.02725-2.8944 3.0577 1.327 3.9958-3.8024-1.8078-3.3901 2.4968 0.54435-4.175-3.4222-2.4527z" fill="#fff" fill-rule="evenodd"/>
 <path transform="matrix(1.0487 .089951 -.08593 1.0977 -73.263 -149.41)" d="m100.33 146.67 4.1389-0.77244 1.2751-4.0126 2.0136 3.6976 4.2102-0.02725-2.8944 3.0577 1.327 3.9958-3.8024-1.8078-3.3901 2.4968 0.54435-4.175-3.4222-2.4527z" fill="#fff" fill-rule="evenodd"/>
 <path transform="matrix(1.0487 .089951 -.08593 1.0977 -86.263 -160.41)" d="m100.33 146.67 4.1389-0.77244 1.2751-4.0126 2.0136 3.6976 4.2102-0.02725-2.8944 3.0577 1.327 3.9958-3.8024-1.8078-3.3901 2.4968 0.54435-4.175-3.4222-2.4527z" fill="#fff" fill-rule="evenodd"/>
 <path transform="matrix(1.0487 .089951 -.08593 1.0977 -48.263 -86.411)" d="m100.33 146.67 4.1389-0.77244 1.2751-4.0126 2.0136 3.6976 4.2102-0.02725-2.8944 3.0577 1.327 3.9958-3.8024-1.8078-3.3901 2.4968 0.54435-4.175-3.4222-2.4527z" fill="#fff" fill-rule="evenodd"/>
 <path transform="matrix(1.0487 .089951 -.08593 1.0977 -61.263 -97.411)" d="m100.33 146.67 4.1389-0.77244 1.2751-4.0126 2.0136 3.6976 4.2102-0.02725-2.8944 3.0577 1.327 3.9958-3.8024-1.8078-3.3901 2.4968 0.54435-4.175-3.4222-2.4527z" fill="#fff" fill-rule="evenodd"/>
 <path transform="matrix(1.0487 .089951 -.08593 1.0977 -48.263 -107.41)" d="m100.33 146.67 4.1389-0.77244 1.2751-4.0126 2.0136 3.6976 4.2102-0.02725-2.8944 3.0577 1.327 3.9958-3.8024-1.8078-3.3901 2.4968 0.54435-4.175-3.4222-2.4527z" fill="#fff" fill-rule="evenodd"/>
 <path transform="matrix(1.0487 .089951 -.08593 1.0977 -61.263 -118.41)" d="m100.33 146.67 4.1389-0.77244 1.2751-4.0126 2.0136 3.6976 4.2102-0.02725-2.8944 3.0577 1.327 3.9958-3.8024-1.8078-3.3901 2.4968 0.54435-4.175-3.4222-2.4527z" fill="#fff" fill-rule="evenodd"/>
 <path transform="matrix(1.0487 .089951 -.08593 1.0977 -48.263 -128.41)" d="m100.33 146.67 4.1389-0.77244 1.2751-4.0126 2.0136 3.6976 4.2102-0.02725-2.8944 3.0577 1.327 3.9958-3.8024-1.8078-3.3901 2.4968 0.54435-4.175-3.4222-2.4527z" fill="#fff" fill-rule="evenodd"/>
 <path transform="matrix(1.0487 .089951 -.08593 1.0977 -61.263 -139.41)" d="m100.33 146.67 4.1389-0.77244 1.2751-4.0126 2.0136 3.6976 4.2102-0.02725-2.8944 3.0577 1.327 3.9958-3.8024-1.8078-3.3901 2.4968 0.54435-4.175-3.4222-2.4527z" fill="#fff" fill-rule="evenodd"/>
 <path transform="matrix(1.0487 .089951 -.08593 1.0977 -48.263 -149.41)" d="m100.33 146.67 4.1389-0.77244 1.2751-4.0126 2.0136 3.6976 4.2102-0.02725-2.8944 3.0577 1.327 3.9958-3.8024-1.8078-3.3901 2.4968 0.54435-4.175-3.4222-2.4527z" fill="#fff" fill-rule="evenodd"/>
 <path transform="matrix(1.0487 .089951 -.08593 1.0977 -61.263 -160.41)" d="m100.33 146.67 4.1389-0.77244 1.2751-4.0126 2.0136 3.6976 4.2102-0.02725-2.8944 3.0577 1.327 3.9958-3.8024-1.8078-3.3901 2.4968 0.54435-4.175-3.4222-2.4527z" fill="#fff" fill-rule="evenodd"/>
 <path transform="matrix(1.0487 .089951 -.08593 1.0977 -23.263 -86.411)" d="m100.33 146.67 4.1389-0.77244 1.2751-4.0126 2.0136 3.6976 4.2102-0.02725-2.8944 3.0577 1.327 3.9958-3.8024-1.8078-3.3901 2.4968 0.54435-4.175-3.4222-2.4527z" fill="#fff" fill-rule="evenodd"/>
 <path transform="matrix(1.0487 .089951 -.08593 1.0977 -35.263 -97.411)" d="m100.33 146.67 4.1389-0.77244 1.2751-4.0126 2.0136 3.6976 4.2102-0.02725-2.8944 3.0577 1.327 3.9958-3.8024-1.8078-3.3901 2.4968 0.54435-4.175-3.4222-2.4527z" fill="#fff" fill-rule="evenodd"/>
 <path transform="matrix(1.0487 .089951 -.08593 1.0977 14.737 -97.411)" d="m100.33 146.67 4.1389-0.77244 1.2751-4.0126 2.0136 3.6976 4.2102-0.02725-2.8944 3.0577 1.327 3.9958-3.8024-1.8078-3.3901 2.4968 0.54435-4.175-3.4222-2.4527z" fill="#fff" fill-rule="evenodd"/>
 <path transform="matrix(1.0487 .089951 -.08593 1.0977 -10.263 -97.411)" d="m100.33 146.67 4.1389-0.77244 1.2751-4.0126 2.0136 3.6976 4.2102-0.02725-2.8944 3.0577 1.327 3.9958-3.8024-1.8078-3.3901 2.4968 0.54435-4.175-3.4222-2.4527z" fill="#fff" fill-rule="evenodd"/>
 <path transform="matrix(1.0487 .089951 -.08593 1.0977 27.737 -86.411)" d="m100.33 146.67 4.1389-0.77244 1.2751-4.0126 2.0136 3.6976 4.2102-0.02725-2.8944 3.0577 1.327 3.9958-3.8024-1.8078-3.3901 2.4968 0.54435-4.175-3.4222-2.4527z" fill="#fff" fill-rule="evenodd"/>
 <path transform="matrix(1.0487 .089951 -.08593 1.0977 2.7366 -86.411)" d="m100.33 146.67 4.1389-0.77244 1.2751-4.0126 2.0136 3.6976 4.2102-0.02725-2.8944 3.0577 1.327 3.9958-3.8024-1.8078-3.3901 2.4968 0.54435-4.175-3.4222-2.4527z" fill="#fff" fill-rule="evenodd"/>
 <path transform="matrix(1.0487 .089951 -.08593 1.0977 -35.263 -160.41)" d="m100.33 146.67 4.1389-0.77244 1.2751-4.0126 2.0136 3.6976 4.2102-0.02725-2.8944 3.0577 1.327 3.9958-3.8024-1.8078-3.3901 2.4968 0.54435-4.175-3.4222-2.4527z" fill="#fff" fill-rule="evenodd"/>
 <path transform="matrix(1.0487 .089951 -.08593 1.0977 -23.263 -149.41)" d="m100.33 146.67 4.1389-0.77244 1.2751-4.0126 2.0136 3.6976 4.2102-0.02725-2.8944 3.0577 1.327 3.9958-3.8024-1.8078-3.3901 2.4968 0.54435-4.175-3.4222-2.4527z" fill="#fff" fill-rule="evenodd"/>
 <path transform="matrix(1.0487 .089951 -.08593 1.0977 -35.263 -139.41)" d="m100.33 146.67 4.1389-0.77244 1.2751-4.0126 2.0136 3.6976 4.2102-0.02725-2.8944 3.0577 1.327 3.9958-3.8024-1.8078-3.3901 2.4968 0.54435-4.175-3.4222-2.4527z" fill="#fff" fill-rule="evenodd"/>
 <path transform="matrix(1.0487 .089951 -.08593 1.0977 -23.263 -128.41)" d="m100.33 146.67 4.1389-0.77244 1.2751-4.0126 2.0136 3.6976 4.2102-0.02725-2.8944 3.0577 1.327 3.9958-3.8024-1.8078-3.3901 2.4968 0.54435-4.175-3.4222-2.4527z" fill="#fff" fill-rule="evenodd"/>
 <path transform="matrix(1.0487 .089951 -.08593 1.0977 -35.263 -118.41)" d="m100.33 146.67 4.1389-0.77244 1.2751-4.0126 2.0136 3.6976 4.2102-0.02725-2.8944 3.0577 1.327 3.9958-3.8024-1.8078-3.3901 2.4968 0.54435-4.175-3.4222-2.4527z" fill="#fff" fill-rule="evenodd"/>
 <path transform="matrix(1.0487 .089951 -.08593 1.0977 -23.263 -107.41)" d="m100.33 146.67 4.1389-0.77244 1.2751-4.0126 2.0136 3.6976 4.2102-0.02725-2.8944 3.0577 1.327 3.9958-3.8024-1.8078-3.3901 2.4968 0.54435-4.175-3.4222-2.4527z" fill="#fff" fill-rule="evenodd"/>
 <path transform="matrix(1.0487 .089951 -.08593 1.0977 40.737 -97.411)" d="m100.33 146.67 4.1389-0.77244 1.2751-4.0126 2.0136 3.6976 4.2102-0.02725-2.8944 3.0577 1.327 3.9958-3.8024-1.8078-3.3901 2.4968 0.54435-4.175-3.4222-2.4527z" fill="#fff" fill-rule="evenodd"/>
 <path transform="matrix(1.0487 .089951 -.08593 1.0977 -10.263 -118.41)" d="m100.33 146.67 4.1389-0.77244 1.2751-4.0126 2.0136 3.6976 4.2102-0.02725-2.8944 3.0577 1.327 3.9958-3.8024-1.8078-3.3901 2.4968 0.54435-4.175-3.4222-2.4527z" fill="#fff" fill-rule="evenodd"/>
 <path transform="matrix(1.0487 .089951 -.08593 1.0977 -10.263 -160.41)" d="m100.33 146.67 4.1389-0.77244 1.2751-4.0126 2.0136 3.6976 4.2102-0.02725-2.8944 3.0577 1.327 3.9958-3.8024-1.8078-3.3901 2.4968 0.54435-4.175-3.4222-2.4527z" fill="#fff" fill-rule="evenodd"/>
 <path transform="matrix(1.0487 .089951 -.08593 1.0977 -10.263 -139.41)" d="m100.33 146.67 4.1389-0.77244 1.2751-4.0126 2.0136 3.6976 4.2102-0.02725-2.8944 3.0577 1.327 3.9958-3.8024-1.8078-3.3901 2.4968 0.54435-4.175-3.4222-2.4527z" fill="#fff" fill-rule="evenodd"/>
 <path transform="matrix(1.0487 .089951 -.08593 1.0977 27.737 -107.41)" d="m100.33 146.67 4.1389-0.77244 1.2751-4.0126 2.0136 3.6976 4.2102-0.02725-2.8944 3.0577 1.327 3.9958-3.8024-1.8078-3.3901 2.4968 0.54435-4.175-3.4222-2.4527z" fill="#fff" fill-rule="evenodd"/>
 <path transform="matrix(1.0487 .089951 -.08593 1.0977 2.7366 -107.41)" d="m100.33 146.67 4.1389-0.77244 1.2751-4.0126 2.0136 3.6976 4.2102-0.02725-2.8944 3.0577 1.327 3.9958-3.8024-1.8078-3.3901 2.4968 0.54435-4.175-3.4222-2.4527z" fill="#fff" fill-rule="evenodd"/>
 <path transform="matrix(1.0487 .089951 -.08593 1.0977 2.7366 -149.41)" d="m100.33 146.67 4.1389-0.77244 1.2751-4.0126 2.0136 3.6976 4.2102-0.02725-2.8944 3.0577 1.327 3.9958-3.8024-1.8078-3.3901 2.4968 0.54435-4.175-3.4222-2.4527z" fill="#fff" fill-rule="evenodd"/>
 <path transform="matrix(1.0487 .089951 -.08593 1.0977 2.7366 -128.41)" d="m100.33 146.67 4.1389-0.77244 1.2751-4.0126 2.0136 3.6976 4.2102-0.02725-2.8944 3.0577 1.327 3.9958-3.8024-1.8078-3.3901 2.4968 0.54435-4.175-3.4222-2.4527z" fill="#fff" fill-rule="evenodd"/>
 <path transform="matrix(1.0487 .089951 -.08593 1.0977 40.737 -118.41)" d="m100.33 146.67 4.1389-0.77244 1.2751-4.0126 2.0136 3.6976 4.2102-0.02725-2.8944 3.0577 1.327 3.9958-3.8024-1.8078-3.3901 2.4968 0.54435-4.175-3.4222-2.4527z" fill="#fff" fill-rule="evenodd"/>
 <path transform="matrix(1.0487 .089951 -.08593 1.0977 14.737 -118.41)" d="m100.33 146.67 4.1389-0.77244 1.2751-4.0126 2.0136 3.6976 4.2102-0.02725-2.8944 3.0577 1.327 3.9958-3.8024-1.8078-3.3901 2.4968 0.54435-4.175-3.4222-2.4527z" fill="#fff" fill-rule="evenodd"/>
 <path transform="matrix(1.0487 .089951 -.08593 1.0977 14.737 -160.41)" d="m100.33 146.67 4.1389-0.77244 1.2751-4.0126 2.0136 3.6976 4.2102-0.02725-2.8944 3.0577 1.327 3.9958-3.8024-1.8078-3.3901 2.4968 0.54435-4.175-3.4222-2.4527z" fill="#fff" fill-rule="evenodd"/>
 <path transform="matrix(1.0487 .089951 -.08593 1.0977 14.737 -139.41)" d="m100.33 146.67 4.1389-0.77244 1.2751-4.0126 2.0136 3.6976 4.2102-0.02725-2.8944 3.0577 1.327 3.9958-3.8024-1.8078-3.3901 2.4968 0.54435-4.175-3.4222-2.4527z" fill="#fff" fill-rule="evenodd"/>
 <path transform="matrix(1.0487 .089951 -.08593 1.0977 40.737 -160.41)" d="m100.33 146.67 4.1389-0.77244 1.2751-4.0126 2.0136 3.6976 4.2102-0.02725-2.8944 3.0577 1.327 3.9958-3.8024-1.8078-3.3901 2.4968 0.54435-4.175-3.4222-2.4527z" fill="#fff" fill-rule="evenodd"/>
 <path transform="matrix(1.0487 .089951 -.08593 1.0977 27.737 -149.41)" d="m100.33 146.67 4.1389-0.77244 1.2751-4.0126 2.0136 3.6976 4.2102-0.02725-2.8944 3.0577 1.327 3.9958-3.8024-1.8078-3.3901 2.4968 0.54435-4.175-3.4222-2.4527z" fill="#fff" fill-rule="evenodd"/>
 <path transform="matrix(1.0487 .089951 -.08593 1.0977 40.737 -139.41)" d="m100.33 146.67 4.1389-0.77244 1.2751-4.0126 2.0136 3.6976 4.2102-0.02725-2.8944 3.0577 1.327 3.9958-3.8024-1.8078-3.3901 2.4968 0.54435-4.175-3.4222-2.4527z" fill="#fff" fill-rule="evenodd"/>
 <path transform="matrix(1.0487 .089951 -.08593 1.0977 27.737 -128.41)" d="m100.33 146.67 4.1389-0.77244 1.2751-4.0126 2.0136 3.6976 4.2102-0.02725-2.8944 3.0577 1.327 3.9958-3.8024-1.8078-3.3901 2.4968 0.54435-4.175-3.4222-2.4527z" fill="#fff" fill-rule="evenodd"/>
</svg>
